<svg id="visual" viewBox="0 0 1280 670" width="1280" height="670" xmlns="http://www.w3.org/2000/svg" xmlns:xlink="http://www.w3.org/1999/xlink" version="1.1"><g stroke-width="1" stroke-linejoin="bevel"><path d="M556.9 391L451.7 302L449.7 384Z" fill="#090b58" stroke="#090b58"></path><path d="M556.9 391L597.9 239L451.7 302Z" fill="#060948" stroke="#060948"></path><path d="M313.4 531L435.7 504L449.7 384Z" fill="#0e0d69" stroke="#0e0d69"></path><path d="M449.7 384L435.7 504L556.9 391Z" fill="#0a0c5c" stroke="#0a0c5c"></path><path d="M597.9 239L567.9 158L451.7 302Z" fill="#0d0d65" stroke="#0d0d65"></path><path d="M588.9 561L699.1 425L556.9 391Z" fill="#0a0c5c" stroke="#0a0c5c"></path><path d="M556.9 391L699.1 425L597.9 239Z" fill="#070844" stroke="#070844"></path><path d="M597.9 239L707.1 229L567.9 158Z" fill="#070640" stroke="#070640"></path><path d="M389.7 140L306.4 263L451.7 302Z" fill="#0a0c5c" stroke="#0a0c5c"></path><path d="M451.7 302L306.4 263L449.7 384Z" fill="#080b54" stroke="#080b54"></path><path d="M699.1 425L707.1 229L597.9 239Z" fill="#070a4c" stroke="#070a4c"></path><path d="M435.7 504L588.9 561L556.9 391Z" fill="#070b50" stroke="#070b50"></path><path d="M567.9 158L389.7 140L451.7 302Z" fill="#060948" stroke="#060948"></path><path d="M306.4 263L250.4 371L449.7 384Z" fill="#070640" stroke="#070640"></path><path d="M250.4 371L313.4 531L449.7 384Z" fill="#0d0d65" stroke="#0d0d65"></path><path d="M454.7 670L553.9 670L588.9 561Z" fill="#090b58" stroke="#090b58"></path><path d="M588.9 561L688.1 569L699.1 425Z" fill="#0a0c5c" stroke="#0a0c5c"></path><path d="M389.7 140L283.4 153L306.4 263Z" fill="#090b58" stroke="#090b58"></path><path d="M130.2 248L171.2 369L250.4 371Z" fill="#060948" stroke="#060948"></path><path d="M829.3 263L749.1 135L707.1 229Z" fill="#0e0d69" stroke="#0e0d69"></path><path d="M707.1 229L749.1 135L567.9 158Z" fill="#0b0c61" stroke="#0b0c61"></path><path d="M567.9 158L532.9 0L389.7 140Z" fill="#080b54" stroke="#080b54"></path><path d="M829.3 263L707.1 229L699.1 425Z" fill="#0a0c5c" stroke="#0a0c5c"></path><path d="M688.1 569L819.3 421L699.1 425Z" fill="#060948" stroke="#060948"></path><path d="M588.9 561L553.9 670L688.1 569Z" fill="#0b0c61" stroke="#0b0c61"></path><path d="M454.7 670L588.9 561L435.7 504Z" fill="#0d0d65" stroke="#0d0d65"></path><path d="M313.4 531L454.7 670L435.7 504Z" fill="#070a4c" stroke="#070a4c"></path><path d="M819.3 421L829.3 263L699.1 425Z" fill="#070844" stroke="#070844"></path><path d="M250.4 371L144.2 570L313.4 531Z" fill="#070b50" stroke="#070b50"></path><path d="M130.2 248L250.4 371L306.4 263Z" fill="#060948" stroke="#060948"></path><path d="M688.1 0L532.9 0L567.9 158Z" fill="#090b58" stroke="#090b58"></path><path d="M389.7 140L262.4 0L283.4 153Z" fill="#090b58" stroke="#090b58"></path><path d="M532.9 0L401.7 0L389.7 140Z" fill="#0b0c61" stroke="#0b0c61"></path><path d="M313.4 531L307.4 670L454.7 670Z" fill="#070a4c" stroke="#070a4c"></path><path d="M178.2 670L307.4 670L313.4 531Z" fill="#080b54" stroke="#080b54"></path><path d="M829.3 263L836.3 147L749.1 135Z" fill="#090b58" stroke="#090b58"></path><path d="M749.1 135L688.1 0L567.9 158Z" fill="#0d0d65" stroke="#0d0d65"></path><path d="M132.2 159L130.2 248L283.4 153Z" fill="#0b0c61" stroke="#0b0c61"></path><path d="M283.4 153L130.2 248L306.4 263Z" fill="#060948" stroke="#060948"></path><path d="M847.3 0L688.1 0L749.1 135Z" fill="#060948" stroke="#060948"></path><path d="M553.9 670L747.1 670L688.1 569Z" fill="#060948" stroke="#060948"></path><path d="M688.1 569L882.3 498L819.3 421Z" fill="#070640" stroke="#070640"></path><path d="M747.1 670L882.3 498L688.1 569Z" fill="#0a0c5c" stroke="#0a0c5c"></path><path d="M819.3 421L1016.6 387L829.3 263Z" fill="#060948" stroke="#060948"></path><path d="M829.3 263L966.6 169L836.3 147Z" fill="#090b58" stroke="#090b58"></path><path d="M175.2 0L132.2 159L283.4 153Z" fill="#0b0c61" stroke="#0b0c61"></path><path d="M401.7 0L262.4 0L389.7 140Z" fill="#090b58" stroke="#090b58"></path><path d="M0 514L144.2 570L171.2 369Z" fill="#0e0d69" stroke="#0e0d69"></path><path d="M171.2 369L144.2 570L250.4 371Z" fill="#070640" stroke="#070640"></path><path d="M144.2 570L178.2 670L313.4 531Z" fill="#070b50" stroke="#070b50"></path><path d="M262.4 0L175.2 0L283.4 153Z" fill="#0e0d69" stroke="#0e0d69"></path><path d="M836.3 147L847.3 0L749.1 135Z" fill="#0e0d69" stroke="#0e0d69"></path><path d="M966.6 169L847.3 0L836.3 147Z" fill="#070a4c" stroke="#070a4c"></path><path d="M1031.6 276L966.6 169L829.3 263Z" fill="#080b54" stroke="#080b54"></path><path d="M747.1 670L887.3 670L882.3 498Z" fill="#0d0d65" stroke="#0d0d65"></path><path d="M882.3 498L1016.6 387L819.3 421Z" fill="#0b0c61" stroke="#0b0c61"></path><path d="M0 114L0 298L130.2 248Z" fill="#070b50" stroke="#070b50"></path><path d="M130.2 248L0 298L171.2 369Z" fill="#0e0d69" stroke="#0e0d69"></path><path d="M144.2 570L0 670L178.2 670Z" fill="#060948" stroke="#060948"></path><path d="M0 114L130.2 248L132.2 159Z" fill="#0a0c5c" stroke="#0a0c5c"></path><path d="M0 298L0 410L171.2 369Z" fill="#060948" stroke="#060948"></path><path d="M1003.6 572L1016.6 387L882.3 498Z" fill="#070640" stroke="#070640"></path><path d="M1016.6 387L1031.6 276L829.3 263Z" fill="#0a0c5c" stroke="#0a0c5c"></path><path d="M0 410L0 514L171.2 369Z" fill="#070a4c" stroke="#070a4c"></path><path d="M887.3 670L1003.6 572L882.3 498Z" fill="#060948" stroke="#060948"></path><path d="M1016.6 387L1105.8 306L1031.6 276Z" fill="#070640" stroke="#070640"></path><path d="M175.2 0L0 114L132.2 159Z" fill="#0e0d69" stroke="#0e0d69"></path><path d="M887.3 670L1010.6 670L1003.6 572Z" fill="#070640" stroke="#070640"></path><path d="M1155.8 372L1105.8 306L1016.6 387Z" fill="#0a0c5c" stroke="#0a0c5c"></path><path d="M1112.8 571L1016.6 387L1003.6 572Z" fill="#060948" stroke="#060948"></path><path d="M1031.6 276L1152.8 162L966.6 169Z" fill="#090b58" stroke="#090b58"></path><path d="M966.6 169L1021.6 0L847.3 0Z" fill="#070844" stroke="#070844"></path><path d="M0 514L0 670L144.2 570Z" fill="#0d0d65" stroke="#0d0d65"></path><path d="M175.2 0L0 0L0 114Z" fill="#070b50" stroke="#070b50"></path><path d="M1152.8 162L1021.6 0L966.6 169Z" fill="#070a4c" stroke="#070a4c"></path><path d="M1102.8 670L1112.8 571L1003.6 572Z" fill="#0e0d69" stroke="#0e0d69"></path><path d="M1112.8 571L1155.8 372L1016.6 387Z" fill="#0a0c5c" stroke="#0a0c5c"></path><path d="M1105.8 306L1152.8 162L1031.6 276Z" fill="#0e0d69" stroke="#0e0d69"></path><path d="M1280 296L1152.8 162L1105.8 306Z" fill="#070b50" stroke="#070b50"></path><path d="M1280 394L1280 296L1155.8 372Z" fill="#0a0c5c" stroke="#0a0c5c"></path><path d="M1010.6 670L1102.8 670L1003.6 572Z" fill="#0e0d69" stroke="#0e0d69"></path><path d="M1152.8 162L1114.8 0L1021.6 0Z" fill="#0b0c61" stroke="#0b0c61"></path><path d="M1155.8 372L1280 296L1105.8 306Z" fill="#0e0d69" stroke="#0e0d69"></path><path d="M1152.8 162L1280 0L1114.8 0Z" fill="#0b0c61" stroke="#0b0c61"></path><path d="M1280 394L1155.8 372L1280 571Z" fill="#070a4c" stroke="#070a4c"></path><path d="M1280 571L1155.8 372L1112.8 571Z" fill="#070844" stroke="#070844"></path><path d="M1280 296L1280 157L1152.8 162Z" fill="#070b50" stroke="#070b50"></path><path d="M1280 670L1280 571L1112.8 571Z" fill="#070a4c" stroke="#070a4c"></path><path d="M1102.8 670L1280 670L1112.8 571Z" fill="#090b58" stroke="#090b58"></path><path d="M1280 157L1280 0L1152.8 162Z" fill="#0b0c61" stroke="#0b0c61"></path></g></svg>