<svg id="visual" viewBox="0 0 1480 690" width="1480" height="690" xmlns="http://www.w3.org/2000/svg" xmlns:xlink="http://www.w3.org/1999/xlink" version="1.1"><g stroke-width="1" stroke-linejoin="bevel"><path d="M677.8 389L687.8 516L800.2 431Z" fill="#070a4c" stroke="#070a4c"></path><path d="M687.8 516L800.2 556L800.2 431Z" fill="#070640" stroke="#070640"></path><path d="M957.7 386L831.2 313L800.2 431Z" fill="#060948" stroke="#060948"></path><path d="M800.2 431L831.2 313L677.8 389Z" fill="#070640" stroke="#070640"></path><path d="M831.2 313L661.8 253L677.8 389Z" fill="#0b0c61" stroke="#0b0c61"></path><path d="M677.8 389L504.3 517L687.8 516Z" fill="#0e0d69" stroke="#0e0d69"></path><path d="M465.3 447L504.3 517L677.8 389Z" fill="#0e0d69" stroke="#0e0d69"></path><path d="M687.8 516L695.8 690L800.2 556Z" fill="#070a4c" stroke="#070a4c"></path><path d="M954.7 540L957.7 386L800.2 431Z" fill="#070b50" stroke="#070b50"></path><path d="M504.3 517L695.8 690L687.8 516Z" fill="#060948" stroke="#060948"></path><path d="M800.2 556L954.7 540L800.2 431Z" fill="#080b54" stroke="#080b54"></path><path d="M807.2 690L954.7 540L800.2 556Z" fill="#060948" stroke="#060948"></path><path d="M695.8 690L807.2 690L800.2 556Z" fill="#090b58" stroke="#090b58"></path><path d="M472.3 287L465.3 447L677.8 389Z" fill="#0a0c5c" stroke="#0a0c5c"></path><path d="M1143.1 390L974.7 308L957.7 386Z" fill="#080b54" stroke="#080b54"></path><path d="M957.7 386L974.7 308L831.2 313Z" fill="#070640" stroke="#070640"></path><path d="M831.2 313L816.2 154L661.8 253Z" fill="#0b0c61" stroke="#0b0c61"></path><path d="M661.8 253L472.3 287L677.8 389Z" fill="#060948" stroke="#060948"></path><path d="M953.7 169L816.2 154L831.2 313Z" fill="#0e0d69" stroke="#0e0d69"></path><path d="M661.8 253L637.8 145L472.3 287Z" fill="#0a0c5c" stroke="#0a0c5c"></path><path d="M816.2 154L637.8 145L661.8 253Z" fill="#0b0c61" stroke="#0b0c61"></path><path d="M330.9 537L475.3 690L504.3 517Z" fill="#070a4c" stroke="#070a4c"></path><path d="M504.3 517L475.3 690L695.8 690Z" fill="#070844" stroke="#070844"></path><path d="M807.2 690L984.7 690L954.7 540Z" fill="#0a0c5c" stroke="#0a0c5c"></path><path d="M954.7 540L1143.1 390L957.7 386Z" fill="#070a4c" stroke="#070a4c"></path><path d="M974.7 308L953.7 169L831.2 313Z" fill="#0e0d69" stroke="#0e0d69"></path><path d="M472.3 287L351.9 414L465.3 447Z" fill="#070b50" stroke="#070b50"></path><path d="M465.3 447L330.9 537L504.3 517Z" fill="#0e0d69" stroke="#0e0d69"></path><path d="M351.9 414L330.9 537L465.3 447Z" fill="#070a4c" stroke="#070a4c"></path><path d="M472.3 0L475.3 129L637.8 145Z" fill="#080b54" stroke="#080b54"></path><path d="M637.8 145L475.3 129L472.3 287Z" fill="#0e0d69" stroke="#0e0d69"></path><path d="M472.3 287L305.9 313L351.9 414Z" fill="#070b50" stroke="#070b50"></path><path d="M1138.1 578L1143.1 390L954.7 540Z" fill="#060948" stroke="#060948"></path><path d="M974.7 308L1148.1 271L953.7 169Z" fill="#070a4c" stroke="#070a4c"></path><path d="M984.7 690L1138.1 578L954.7 540Z" fill="#070b50" stroke="#070b50"></path><path d="M339.9 105L305.9 313L472.3 287Z" fill="#0e0d69" stroke="#0e0d69"></path><path d="M351.9 414L183.4 424L330.9 537Z" fill="#0e0d69" stroke="#0e0d69"></path><path d="M155.4 690L347.9 690L330.9 537Z" fill="#0d0d65" stroke="#0d0d65"></path><path d="M330.9 537L347.9 690L475.3 690Z" fill="#070b50" stroke="#070b50"></path><path d="M816.2 154L661.8 0L637.8 145Z" fill="#0d0d65" stroke="#0d0d65"></path><path d="M831.2 0L661.8 0L816.2 154Z" fill="#070a4c" stroke="#070a4c"></path><path d="M1332.6 295L1148.1 271L1143.1 390Z" fill="#070b50" stroke="#070b50"></path><path d="M1143.1 390L1148.1 271L974.7 308Z" fill="#070844" stroke="#070844"></path><path d="M953.7 169L831.2 0L816.2 154Z" fill="#080b54" stroke="#080b54"></path><path d="M1006.7 0L831.2 0L953.7 169Z" fill="#0e0d69" stroke="#0e0d69"></path><path d="M984.7 690L1143.1 690L1138.1 578Z" fill="#070640" stroke="#070640"></path><path d="M1138.1 578L1286.6 552L1143.1 390Z" fill="#070b50" stroke="#070b50"></path><path d="M661.8 0L472.3 0L637.8 145Z" fill="#090b58" stroke="#090b58"></path><path d="M475.3 129L339.9 105L472.3 287Z" fill="#070b50" stroke="#070b50"></path><path d="M472.3 0L339.9 105L475.3 129Z" fill="#0e0d69" stroke="#0e0d69"></path><path d="M1152.1 109L1006.7 0L953.7 169Z" fill="#0e0d69" stroke="#0e0d69"></path><path d="M180.4 310L183.4 424L305.9 313Z" fill="#0b0c61" stroke="#0b0c61"></path><path d="M305.9 313L183.4 424L351.9 414Z" fill="#070b50" stroke="#070b50"></path><path d="M1298.6 139L1152.1 109L1148.1 271Z" fill="#070b50" stroke="#070b50"></path><path d="M1148.1 271L1152.1 109L953.7 169Z" fill="#0a0c5c" stroke="#0a0c5c"></path><path d="M175.4 100L180.4 310L305.9 313Z" fill="#0b0c61" stroke="#0b0c61"></path><path d="M1143.1 690L1286.6 552L1138.1 578Z" fill="#090b58" stroke="#090b58"></path><path d="M472.3 0L357.9 0L339.9 105Z" fill="#070640" stroke="#070640"></path><path d="M339.9 105L175.4 100L305.9 313Z" fill="#0d0d65" stroke="#0d0d65"></path><path d="M1152.1 109L1113.1 0L1006.7 0Z" fill="#070b50" stroke="#070b50"></path><path d="M183.4 424L125.4 517L330.9 537Z" fill="#070b50" stroke="#070b50"></path><path d="M0 439L125.4 517L183.4 424Z" fill="#070a4c" stroke="#070a4c"></path><path d="M125.4 517L155.4 690L330.9 537Z" fill="#0a0c5c" stroke="#0a0c5c"></path><path d="M1286.6 552L1344.6 392L1143.1 390Z" fill="#070640" stroke="#070640"></path><path d="M1152.1 109L1323.6 0L1113.1 0Z" fill="#0d0d65" stroke="#0d0d65"></path><path d="M1344.6 392L1332.6 295L1143.1 390Z" fill="#090b58" stroke="#090b58"></path><path d="M1143.1 690L1305.6 690L1286.6 552Z" fill="#0b0c61" stroke="#0b0c61"></path><path d="M1480 540L1480 443L1344.6 392Z" fill="#070844" stroke="#070844"></path><path d="M1332.6 295L1298.6 139L1148.1 271Z" fill="#090b58" stroke="#090b58"></path><path d="M166.4 0L175.4 100L339.9 105Z" fill="#090b58" stroke="#090b58"></path><path d="M180.4 310L0 439L183.4 424Z" fill="#090b58" stroke="#090b58"></path><path d="M357.9 0L166.4 0L339.9 105Z" fill="#0a0c5c" stroke="#0a0c5c"></path><path d="M0 265L0 439L180.4 310Z" fill="#0b0c61" stroke="#0b0c61"></path><path d="M0 265L180.4 310L175.4 100Z" fill="#060948" stroke="#060948"></path><path d="M125.4 517L0 557L155.4 690Z" fill="#060948" stroke="#060948"></path><path d="M0 439L0 557L125.4 517Z" fill="#070a4c" stroke="#070a4c"></path><path d="M1480 175L1298.6 139L1332.6 295Z" fill="#070a4c" stroke="#070a4c"></path><path d="M1480 0L1323.6 0L1298.6 139Z" fill="#090b58" stroke="#090b58"></path><path d="M1298.6 139L1323.6 0L1152.1 109Z" fill="#070b50" stroke="#070b50"></path><path d="M0 128L0 265L175.4 100Z" fill="#080b54" stroke="#080b54"></path><path d="M1480 540L1344.6 392L1286.6 552Z" fill="#080b54" stroke="#080b54"></path><path d="M1344.6 392L1480 256L1332.6 295Z" fill="#0b0c61" stroke="#0b0c61"></path><path d="M1305.6 690L1480 540L1286.6 552Z" fill="#080b54" stroke="#080b54"></path><path d="M0 557L0 690L155.4 690Z" fill="#0e0d69" stroke="#0e0d69"></path><path d="M1480 443L1480 256L1344.6 392Z" fill="#080b54" stroke="#080b54"></path><path d="M1305.6 690L1480 690L1480 540Z" fill="#0a0c5c" stroke="#0a0c5c"></path><path d="M0 0L0 128L175.4 100Z" fill="#0d0d65" stroke="#0d0d65"></path><path d="M1480 256L1480 175L1332.6 295Z" fill="#070640" stroke="#070640"></path><path d="M166.4 0L0 0L175.4 100Z" fill="#080b54" stroke="#080b54"></path><path d="M1480 175L1480 0L1298.6 139Z" fill="#060948" stroke="#060948"></path></g></svg>